<svg width="45" height="45" viewBox="0 0 45 45" fill="none" xmlns="http://www.w3.org/2000/svg">
<path d="M44.1482 43.0804L32.5203 31.4499C39.0126 24.2953 38.807 13.2249 31.9008 6.31795C28.3408 2.758 23.6753 0.978027 19.0083 0.978027C14.3427 0.978027 9.67706 2.758 6.1172 6.31795C-1.00269 13.4378 -1.00269 24.9816 6.1172 32.1015C9.67647 35.6614 14.3434 37.4401 19.0083 37.4401C23.3867 37.4401 27.7639 35.8737 31.2304 32.7384L42.9678 44.4759L42.9758 44.4665C43.1415 44.6322 43.3685 44.7336 43.6208 44.7336C44.1243 44.7336 44.5329 44.325 44.5329 43.8229C44.5328 43.5157 44.3806 43.2446 44.1482 43.0804ZM19.0083 35.6186C16.8771 35.6186 14.7993 35.2127 12.8331 34.4169C10.7987 33.5917 8.9727 32.3792 7.40638 30.8115C5.83946 29.2452 4.62626 27.4198 3.80173 25.3848C3.00456 23.4192 2.59999 21.3415 2.59999 19.2096C2.59999 17.0771 3.00456 15.0001 3.80173 13.0338C4.62626 11.0001 5.83946 9.17404 7.40638 7.60704C8.9727 6.04012 10.7987 4.82692 12.8331 4.00239C14.7987 3.20522 16.8764 2.80133 19.0083 2.80133C21.1408 2.80133 23.2186 3.2053 25.1841 4.00239C27.2191 4.82692 29.0432 6.04012 30.6108 7.60704C32.1785 9.17404 33.3909 11.0001 34.2162 13.0338C35.012 15 35.4166 17.0771 35.4166 19.2096C35.4166 21.3414 35.012 23.4192 34.2162 25.3848C33.391 27.4198 32.1785 29.2452 30.6108 30.8115C29.0432 32.3792 27.2179 33.5916 25.1841 34.4169C23.2186 35.2127 21.1408 35.6186 19.0083 35.6186Z" fill="white"/>
<path d="M19.9256 18.7329V12.8282H23.5724C24.0758 12.8282 24.4844 12.4203 24.4844 11.9168C24.4844 11.4134 24.0758 11.0055 23.5724 11.0055H19.9256V9.1821H19.9189C19.9189 8.67866 19.511 8.27075 19.0076 8.27075C18.5041 8.27075 18.0955 8.67866 18.0955 9.1821C18.0955 9.21817 18.0982 9.25355 18.1029 9.28893V11.0055H17.5127C14.9382 11.0055 14.101 12.0991 13.8306 12.7515C13.2017 14.2703 14.4195 15.808 15.2013 16.5891L18.103 19.4887V25.5905H14.4563C13.9529 25.5905 13.5449 25.999 13.5449 26.5011C13.5449 27.0059 13.9528 27.4145 14.4563 27.4145H18.103V29.2359C18.103 29.7405 18.5109 30.1492 19.0143 30.1492C19.5178 30.1492 19.9257 29.7406 19.9257 29.2359V27.4145H20.7128C23.288 27.4145 24.1253 26.3196 24.395 25.6679C25.0239 24.1483 23.8061 22.6113 23.025 21.8302L19.9256 18.7329ZM16.4899 15.2992C15.6393 14.4493 15.3876 13.7576 15.5151 13.4485C15.6927 13.0205 16.6461 12.8282 17.5128 12.8282H18.103V16.9109L16.4899 15.2992ZM22.7111 24.9709C22.5335 25.3982 21.5794 25.5905 20.7128 25.5905H19.9256V21.3108L21.7356 23.1201C22.5862 23.9694 22.8393 24.6611 22.7111 24.9709Z" fill="white"/>
</svg>
