<svg width="54" height="44" viewBox="0 0 54 44" fill="none" xmlns="http://www.w3.org/2000/svg">
<path d="M48.0734 0.839111H6.20601C3.11588 0.839111 0.609863 3.35141 0.609863 6.43525V29.4479C0.609863 32.5317 3.11588 35.044 6.20601 35.044H19.0753L26.6498 43.366C26.832 43.5607 27.0832 43.6738 27.347 43.6738C27.6108 43.6738 27.8683 43.5607 28.0442 43.366L35.625 35.044H48.0734C51.1636 35.044 53.6696 32.5317 53.6696 29.4479V6.43525C53.6696 3.35141 51.1636 0.839111 48.0734 0.839111ZM36.6613 29.6112C36.6613 29.6049 36.6488 29.6112 36.6488 29.6112C36.5294 29.6112 36.4101 29.5861 36.2971 29.5421L30.0854 27.0612C29.181 27.3124 28.2514 27.4381 27.3156 27.4381C21.6504 27.4381 17.0403 22.8343 17.0403 17.169C17.0403 11.5038 21.6504 6.89375 27.3156 6.89375C32.9808 6.89375 37.5909 11.5038 37.5909 17.169C37.5909 19.9891 36.4478 22.6459 34.4317 24.5803L37.2831 27.9594C37.4778 28.1352 37.6034 28.3865 37.6034 28.6691C37.6034 29.1841 37.1764 29.6112 36.6613 29.6112Z" fill="#011732"/>
</svg>
