<svg width="57" height="44" viewBox="0 0 57 44" fill="none" xmlns="http://www.w3.org/2000/svg">
<path d="M56.3189 10.4708L48.849 9.21348L49.609 2.06844L44.6061 7.2902L44.6751 7.40308C40.7577 3.33704 35.2613 0.802979 29.1716 0.802979C24.1048 0.802979 17.2883 2.92881 12.5538 10.4225C8.76619 16.4112 11.3122 21.616 9.05465 24.3C6.0509 27.8618 0.820984 22.4312 0.820984 22.4312C0.820984 22.4312 3.76202 45.0816 29.1716 43.8714C41.0487 43.307 50.7058 34.233 50.7058 22.3372C50.7058 19.5918 50.186 16.9687 49.2485 14.5531L56.3189 10.4708ZM17.5586 31.7052C14.8872 31.7052 12.7237 29.5418 12.7237 26.8704H22.3934C22.3934 29.5418 20.23 31.7052 17.5586 31.7052ZM30.1944 23.3023C26.1246 23.3023 22.8324 20.0038 22.8324 15.9403C22.8324 11.8705 26.1246 8.57824 30.1944 8.57824C34.2579 8.57824 37.5564 11.8705 37.5564 15.9403C37.5564 20.0038 34.2579 23.3023 30.1944 23.3023Z" fill="#011732"/>
</svg>
