<svg width="52" height="36" viewBox="0 0 52 36" fill="none" xmlns="http://www.w3.org/2000/svg">
<path d="M42.9644 0.839111H9.47909C7.20724 0.839111 5.02844 1.7416 3.42201 3.34803C1.81557 4.95447 0.913086 7.13327 0.913086 9.40511V27.3158C0.913086 29.5877 1.81557 31.7665 3.42201 33.3729C5.02844 34.9794 7.20724 35.8818 9.47909 35.8818H42.9644C45.2362 35.8818 47.415 34.9794 49.0214 33.3729C50.6279 31.7665 51.5304 29.5877 51.5304 27.3158V9.40511C51.5304 7.13327 50.6279 4.95447 49.0214 3.34803C47.415 1.7416 45.2362 0.839111 42.9644 0.839111ZM28.3632 22.2541L20.7706 26.1477V10.5732L28.3632 14.4668L35.9558 18.3605L28.3632 22.2541Z" fill="#011732"/>
</svg>
