<svg xmlns="http://www.w3.org/2000/svg" xmlns:xlink="http://www.w3.org/1999/xlink" version="1.1" x="0px" y="0px" viewBox="0 0 32 40" enable-background="new 0 0 32 32" xml:space="preserve"><g><path d="M4.107,32.003h23.785V15.99h4.274L16-0.002L-0.167,15.99h4.274V32.003z M16,2.811l11.302,11.18h-1.409v16.013H6.107V13.99   H4.698L16,2.811z"/><polygon points="15,24.333 17,24.333 17,17.972 19.992,17.972 16,11.057 12.008,17.972 15,17.972  "/></g><g display="none"><path display="inline" fill="#000000" d="M27.77,32.003H4.23V15.99H0L16-0.002L32,15.99h-4.23V32.003z M6.21,30.003H25.79V13.99   h1.395L16,2.811L4.815,13.99H6.21V30.003z"/><rect x="15" y="17.333" display="inline" fill="#000000" width="2" height="7"/><polygon display="inline" fill="#000000" points="12.008,17.972 16,11.057 19.992,17.972  "/></g><g display="none"><path display="inline" fill="#000000" d="M27.77,32.003H4.23V15.99H0L16-0.002L32,15.99h-4.23V32.003z M6.21,30.003H25.79V13.99   h1.395L16,2.811L4.815,13.99H6.21V30.003z"/><rect x="15" y="17.333" display="inline" fill="#000000" width="2" height="7"/><polygon display="inline" fill="#000000" points="12.008,17.972 16,11.057 19.992,17.972  "/></g><text x="0" y="47" fill="#000000" font-size="5px" font-weight="bold" font-family="'Helvetica Neue', Helvetica, Arial-Unicode, Arial, Sans-serif">Created by Alfredo @ IconsAlfredo.com</text><text x="0" y="52" fill="#000000" font-size="5px" font-weight="bold" font-family="'Helvetica Neue', Helvetica, Arial-Unicode, Arial, Sans-serif">from the Noun Project</text></svg>