<svg width="34" height="35" viewBox="0 0 34 35" fill="none" xmlns="http://www.w3.org/2000/svg">
<path d="M33.6055 34.8109H0.0905762V32.2267H33.6321V34.8109H33.6055ZM0.623405 34.2781H33.0993V32.7595H0.623405V34.2781Z" fill="white"/>
<path d="M32.2468 32.7595H1.44928V30.1753H32.2468V32.7595ZM1.98211 32.2267H31.7139V30.7081H1.98211V32.2267Z" fill="white"/>
<path d="M30.0622 30.6815H3.63388V12.7251H30.0622V30.6815ZM4.16671 30.1486H29.5293V13.258H4.16671V30.1486Z" fill="white"/>
<path d="M28.7301 25.6196H28.1973V24.9802H28.7301V25.6196ZM28.7301 23.9146H28.1973V20.7176H28.7301V23.9146ZM28.7301 19.6519H28.1973V14.3236H28.7301V19.6519Z" fill="white"/>
<path d="M31.5275 13.258H2.1686C0.996376 13.258 0.303699 12.4321 0.117209 11.5796C-0.0426393 10.7537 0.250417 9.71467 1.34272 9.23513L16.848 2.62805L20.6844 4.27982L20.4713 4.75937L16.848 3.21416L1.55585 9.74131C0.703321 10.1143 0.516831 10.9135 0.650038 11.473C0.756604 12.0591 1.23615 12.7252 2.1686 12.7252H31.5275C32.4599 12.7252 32.9394 12.0591 33.046 11.473C33.1526 10.9135 32.9927 10.1143 32.1402 9.74131L29.849 8.75558L30.0622 8.27603L32.3533 9.26177C33.4456 9.71467 33.7387 10.7803 33.5788 11.6062C33.3924 12.4321 32.6997 13.258 31.5275 13.258Z" fill="white"/>
<path d="M4.61962 8.27603H4.08679V4.14661H7.47025V7.05052H6.93742V4.67944H4.61962V8.27603Z" fill="white"/>
<path d="M7.94979 4.67941H3.60724V2.65466H7.94979V4.67941ZM4.14007 4.14658H7.41696V3.18749H4.14007V4.14658Z" fill="white"/>
<path d="M21.2705 30.6815H12.4255V19.2789L16.848 17.6005L21.2705 19.2789V30.6815ZM12.9584 30.1486H20.7377V19.6519L16.848 18.1866L12.9584 19.6519V30.1486Z" fill="white"/>
<path d="M29.7958 27.0049H22.5493V27.5378H29.7958V27.0049Z" fill="white"/>
<path d="M11.1468 27.0049H3.9003V27.5378H11.1468V27.0049Z" fill="white"/>
<path d="M27.1172 3.79004L23.7828 7.12439L24.1596 7.50115L27.4939 4.1668L27.1172 3.79004Z" fill="white"/>
<path d="M24.1211 5.26553C23.8014 5.26553 23.5084 5.13232 23.2952 4.91919C22.8423 4.46628 22.8423 3.72032 23.2952 3.26742C23.5084 3.05429 23.8014 2.92108 24.1211 2.92108C24.4408 2.92108 24.7339 3.05429 24.947 3.26742C25.1601 3.48055 25.2934 3.77361 25.2934 4.0933C25.2934 4.413 25.1601 4.70606 24.947 4.91919C24.7072 5.13232 24.4142 5.26553 24.1211 5.26553ZM24.1211 3.45391C23.9613 3.45391 23.8014 3.50719 23.6682 3.6404C23.4285 3.88017 23.4285 4.27979 23.6682 4.54621C23.908 4.78598 24.3343 4.78598 24.574 4.54621C24.6806 4.43964 24.7605 4.27979 24.7605 4.0933C24.7605 3.93346 24.7072 3.77361 24.574 3.6404C24.4408 3.50719 24.281 3.45391 24.1211 3.45391Z" fill="white"/>
<path d="M27.1849 8.3293C26.8918 8.3293 26.5988 8.22274 26.359 7.98296C26.1459 7.76983 26.0127 7.47678 26.0127 7.15708C26.0127 6.83738 26.1459 6.54433 26.359 6.33119C26.8119 5.87829 27.5579 5.87829 28.0108 6.33119C28.2239 6.54433 28.3571 6.83738 28.3571 7.15708C28.3571 7.47678 28.2239 7.76983 28.0108 7.98296C27.771 8.22274 27.4779 8.3293 27.1849 8.3293ZM27.1849 6.51768C27.025 6.51768 26.8652 6.57097 26.732 6.70417C26.6254 6.81074 26.5455 6.97059 26.5455 7.15708C26.5455 7.34357 26.5988 7.47678 26.732 7.60998C26.9718 7.84976 27.3714 7.84976 27.6378 7.60998C27.7444 7.50342 27.8243 7.34357 27.8243 7.15708C27.8243 6.97059 27.771 6.83738 27.6378 6.70417C27.5046 6.59761 27.3447 6.51768 27.1849 6.51768Z" fill="white"/>
<path d="M25.6397 11.0734C22.6292 11.0734 20.1782 8.62236 20.1782 5.61188C20.1782 2.6014 22.6292 0.177032 25.6397 0.177032C28.6502 0.177032 31.1012 2.62804 31.1012 5.63853C31.1012 8.64901 28.6502 11.0734 25.6397 11.0734ZM25.6397 0.709861C22.9223 0.709861 20.711 2.9211 20.711 5.63853C20.711 8.35595 22.9223 10.5672 25.6397 10.5672C28.3571 10.5672 30.5683 8.35595 30.5683 5.63853C30.5683 2.9211 28.3571 0.709861 25.6397 0.709861Z" fill="white"/>
<path d="M29.6892 5.63852H29.1563C29.1563 5.3721 29.1297 5.07905 29.0498 4.81263L29.556 4.67943C29.6625 4.99912 29.6892 5.31882 29.6892 5.63852ZM28.7034 3.90682C28.5436 3.61377 28.3305 3.34735 28.0907 3.13422L28.4637 2.76124C28.7301 3.02766 28.9699 3.32071 29.1563 3.66705L28.7034 3.90682ZM27.2914 2.52147C26.7853 2.25506 26.1991 2.09521 25.6397 2.09521V1.56238C26.3057 1.56238 26.9717 1.72223 27.5579 2.04192L27.2914 2.52147Z" fill="white"/>
</svg>
