<svg width="35" height="39" viewBox="0 0 35 39" fill="none" xmlns="http://www.w3.org/2000/svg">
<path d="M17.2538 14.7127C20.719 14.7127 23.5282 11.9036 23.5282 8.43836C23.5282 4.97311 20.719 2.16397 17.2538 2.16397C13.7885 2.16397 10.9794 4.97311 10.9794 8.43836C10.9794 11.9036 13.7885 14.7127 17.2538 14.7127Z" stroke="white" stroke-width="4" stroke-miterlimit="10" stroke-linecap="round" stroke-linejoin="round"/>
<path d="M32.4203 29.3391L17.2538 36.5692L2.04565 29.3391C3.62464 22.3999 9.81592 17.2059 17.2122 17.2059C24.6501 17.2474 30.8413 22.3999 32.4203 29.3391Z" stroke="white" stroke-width="4" stroke-miterlimit="10" stroke-linecap="round" stroke-linejoin="round"/>
<path d="M17.2537 33.4113L19.3314 30.9597L18.1679 21.3611H17.3784H17.0875H16.298L15.1346 30.9597L17.2537 33.4113Z" stroke="white" stroke-width="4" stroke-miterlimit="10" stroke-linecap="round" stroke-linejoin="round"/>
<path d="M18.7497 21.1118H15.7164L14.5114 17.5383H19.9547L18.7497 21.1118Z" stroke="white" stroke-width="4" stroke-miterlimit="10" stroke-linecap="round" stroke-linejoin="round"/>
</svg>
